<mxfile host="app.diagrams.net" modified="2023-08-18T03:08:25.145Z" agent="Mozilla/5.0 (Macintosh; Intel Mac OS X 10_15_7) AppleWebKit/605.1.15 (KHTML, like Gecko) Version/16.6 Safari/605.1.15" etag="wR4BvCesu7MmZNKFItHn" version="21.6.8" type="github">
  <diagram name="Page-1" id="r_VwHNYfO6Pezfeq-DXP">
    <mxGraphModel dx="1026" dy="692" grid="1" gridSize="10" guides="1" tooltips="1" connect="1" arrows="1" fold="1" page="1" pageScale="1" pageWidth="827" pageHeight="1169" math="0" shadow="0">
      <root>
        <mxCell id="0" />
        <mxCell id="1" parent="0" />
        <mxCell id="xDrJAe2YFdKTuZbrfX25-5" value="new tab" style="edgeStyle=orthogonalEdgeStyle;rounded=0;orthogonalLoop=1;jettySize=auto;html=1;entryX=0;entryY=0.5;entryDx=0;entryDy=0;" edge="1" parent="1" source="xDrJAe2YFdKTuZbrfX25-2" target="xDrJAe2YFdKTuZbrfX25-3">
          <mxGeometry relative="1" as="geometry">
            <mxPoint x="290" y="145" as="targetPoint" />
          </mxGeometry>
        </mxCell>
        <mxCell id="xDrJAe2YFdKTuZbrfX25-2" value="Xero Login" style="rounded=0;whiteSpace=wrap;html=1;" vertex="1" parent="1">
          <mxGeometry x="80" y="120" width="130" height="50" as="geometry" />
        </mxCell>
        <mxCell id="xDrJAe2YFdKTuZbrfX25-7" value="" style="edgeStyle=orthogonalEdgeStyle;rounded=0;orthogonalLoop=1;jettySize=auto;html=1;" edge="1" parent="1" source="xDrJAe2YFdKTuZbrfX25-3" target="xDrJAe2YFdKTuZbrfX25-6">
          <mxGeometry relative="1" as="geometry" />
        </mxCell>
        <mxCell id="xDrJAe2YFdKTuZbrfX25-3" value="Xero OAUTH2 Consent" style="rounded=0;whiteSpace=wrap;html=1;" vertex="1" parent="1">
          <mxGeometry x="360" y="110" width="160" height="70" as="geometry" />
        </mxCell>
        <mxCell id="xDrJAe2YFdKTuZbrfX25-9" value="" style="edgeStyle=orthogonalEdgeStyle;rounded=0;orthogonalLoop=1;jettySize=auto;html=1;" edge="1" parent="1" source="xDrJAe2YFdKTuZbrfX25-6" target="xDrJAe2YFdKTuZbrfX25-8">
          <mxGeometry relative="1" as="geometry" />
        </mxCell>
        <mxCell id="xDrJAe2YFdKTuZbrfX25-6" value="Process callback redirection" style="shape=parallelogram;perimeter=parallelogramPerimeter;whiteSpace=wrap;html=1;fixedSize=1;rounded=0;" vertex="1" parent="1">
          <mxGeometry x="620" y="115" width="150" height="60" as="geometry" />
        </mxCell>
        <mxCell id="xDrJAe2YFdKTuZbrfX25-8" value="Store encrypted access_token&amp;nbsp;" style="rounded=0;whiteSpace=wrap;html=1;" vertex="1" parent="1">
          <mxGeometry x="635" y="255" width="120" height="60" as="geometry" />
        </mxCell>
      </root>
    </mxGraphModel>
  </diagram>
</mxfile>
